<svg width="159" height="157" viewBox="0 0 159 157" fill="none" xmlns="http://www.w3.org/2000/svg">
    <path d="M158.428 123.354V139.093H138.327V156.8H120.46V139.093H100.359V123.354H120.46V105.648H138.327V123.354H158.428ZM67.6068 0C51.2929 0 38.0646 11.6498 38.0646 26.0243C38.0646 40.3935 51.2929 52.0485 67.6068 52.0485C83.9251 52.0485 97.149 40.3918 97.149 26.0243C97.149 11.6526 83.9255 0 67.6068 0ZM80.9996 141.064H0.166992V81.956C0.166992 70.6493 13.1298 64.3342 28.1119 64.3342H112.441C127.42 64.3342 136.406 70.6493 136.406 81.956V90.0291C107.372 90.6963 81.3604 113.517 80.9988 141.063L80.9996 141.064Z" fill="url(#paint0_linear_37_242)" />
    <defs>
        <linearGradient id="paint0_linear_37_242" x1="79.2976" y1="0" x2="79.2976" y2="156.8" gradientUnits="userSpaceOnUse">
            <stop stop-color="#F015FE" />
            <stop offset="1" stop-color="#2BC0E3" />
        </linearGradient>
    </defs>
</svg>