<svg width="153" height="131" viewBox="0 0 153 131" fill="none" xmlns="http://www.w3.org/2000/svg">
    <path d="M152.592 2.51305C152.586 1.92669 152.319 1.41318 151.793 0.972522C151.345 0.577233 150.778 0.377816 150.095 0.373047H2.74261C2.05916 0.377824 1.4593 0.577255 0.944187 0.972522C0.483705 1.41318 0.250683 1.92669 0.245117 2.51305V128.773C0.250692 129.358 0.483717 129.844 0.944187 130.228C1.4593 130.679 2.05913 130.908 2.74261 130.913H150.095C150.778 130.908 151.345 130.679 151.793 130.228C152.319 129.844 152.586 129.358 152.592 128.773V2.51305ZM63.0821 54.2155C66.2786 51.5333 70.1085 50.1922 74.5706 50.1922C79.0327 50.1922 82.8292 51.5333 85.9597 54.2155C89.1563 56.9537 90.7541 60.2353 90.7541 64.0591C90.7541 67.8818 89.1563 71.1349 85.9597 73.8169C82.8289 76.5564 79.0324 77.926 74.5706 77.926C70.1085 77.926 66.2786 76.5563 63.0821 73.8169C59.9524 71.1348 58.3871 67.8818 58.3871 64.0591C58.3871 60.2353 59.9525 56.9537 63.0821 54.2155Z" fill="url(#paint0_linear_37_161)" />
    <defs>
        <linearGradient id="paint0_linear_37_161" x1="76.4187" y1="0.373047" x2="76.4187" y2="130.913" gradientUnits="userSpaceOnUse">
            <stop stop-color="#F015FE" />
            <stop offset="1" stop-color="#22E2AD" />
        </linearGradient>
    </defs>
</svg>