<svg width="41" height="41" viewBox="0 0 41 41" fill="none" xmlns="http://www.w3.org/2000/svg">
<g clip-path="url(#clip0_36_17)">
<path d="M20.3572 40.7143C31.5808 40.7143 40.7144 31.5824 40.7144 20.3572C40.7144 9.13361 31.5808 6.83091e-06 20.3572 5.84972e-06C9.13192 4.86837e-06 7.14254e-05 9.1336 7.04442e-05 20.3571C6.94629e-05 31.5824 9.13192 40.7143 20.3572 40.7143ZM8.61281 19.7091C8.69933 19.5021 8.82314 19.3138 8.97924 19.1578L15.7649 12.3721C16.0957 12.0413 16.53 11.8751 16.9643 11.8751C17.3986 11.8751 17.8312 12.0413 18.1637 12.3721C18.8253 13.0354 18.8253 14.1093 18.1637 14.7709L14.2738 18.6607L30.5358 18.6607C31.4722 18.6607 32.2322 19.4207 32.2322 20.3572C32.2322 21.2952 31.4722 22.0536 30.5358 22.0536L14.2738 22.0536L18.1637 25.9434C18.8253 26.6067 18.8253 27.6806 18.1637 28.3422C17.5005 29.0054 16.4266 29.0054 15.765 28.3422L8.97932 21.5581C8.82322 21.402 8.69941 21.2137 8.61289 21.0051C8.44153 20.5913 8.44153 20.1247 8.61281 19.7091Z" fill="white"/>
</g>
<defs>
<clipPath id="clip0_36_17">
<rect width="40.7143" height="40.7143" fill="white" transform="translate(40.7144 40.7143) rotate(-180)"/>
</clipPath>
</defs>
</svg>
