<svg width="41" height="41" viewBox="0 0 41 41" fill="none" xmlns="http://www.w3.org/2000/svg">
<g clip-path="url(#clip0_36_36)">
<path d="M20.6428 0C9.41924 0 0.285645 9.13185 0.285645 20.3571C0.285645 31.5807 9.41924 40.7143 20.6428 40.7143C31.8681 40.7143 40.9999 31.5807 40.9999 20.3571C40.9999 9.13185 31.8681 0 20.6428 0ZM32.3872 21.0052C32.3007 21.2121 32.1769 21.4004 32.0208 21.5565L25.2351 28.3422C24.9043 28.673 24.47 28.8392 24.0357 28.8392C23.6014 28.8392 23.1688 28.673 22.8363 28.3422C22.1747 27.6789 22.1747 26.605 22.8363 25.9434L26.7262 22.0535L10.4642 22.0535C9.52779 22.0535 8.76781 21.2936 8.76781 20.3571C8.76781 19.419 9.52779 18.6607 10.4642 18.6607L26.7262 18.6607L22.8363 14.7709C22.1747 14.1076 22.1747 13.0337 22.8363 12.3721C23.4995 11.7089 24.5734 11.7089 25.235 12.3721L32.0207 19.1562C32.1768 19.3123 32.3006 19.5006 32.3871 19.7092C32.5585 20.123 32.5585 20.5896 32.3872 21.0052Z" fill="white"/>
</g>
<defs>
<clipPath id="clip0_36_36">
<rect width="40.7143" height="40.7143" fill="white" transform="translate(0.285645)"/>
</clipPath>
</defs>
</svg>
